<svg id="SvgjsSvg1001" width="288" height="288" xmlns="http://www.w3.org/2000/svg" version="1.1" xmlns:xlink="http://www.w3.org/1999/xlink" xmlns:svgjs="http://svgjs.com/svgjs"><defs id="SvgjsDefs1002"></defs><g id="SvgjsG1008" transform="matrix(0.9167,0,0,0.9167,11.995200000000011,11.995200000000011)"><svg xmlns="http://www.w3.org/2000/svg" viewBox="0 0 24 24" width="288" height="288"><g data-name="Layer 2" fill="#ff6699" class="color000 svgShape"><g data-name="plus-circle" fill="#ff6699" class="color000 svgShape"><rect width="24" height="24" opacity="0" fill="#ff6699" class="color000 svgShape"></rect><path d="M12 2a10 10 0 1 0 10 10A10 10 0 0 0 12 2zm3 11h-2v2a1 1 0 0 1-2 0v-2H9a1 1 0 0 1 0-2h2V9a1 1 0 0 1 2 0v2h2a1 1 0 0 1 0 2z" fill="#ff6699" class="color000 svgShape"></path></g></g></svg></g></svg>